<mxfile host="app.diagrams.net" modified="2023-06-08T09:38:23.254Z" agent="Mozilla/5.0 (Windows NT 10.0; Win64; x64) AppleWebKit/537.36 (KHTML, like Gecko) Chrome/114.0.0.0 Safari/537.36" version="21.3.6" etag="imTuV7nhJrJfoJTyO_1G" type="github">
  <diagram name="페이지-1" id="YFgWT-JXlxmy7XQ4LBd5">
    <mxGraphModel>
      <root>
        <mxCell id="0" />
        <mxCell id="1" parent="0" />
      </root>
    </mxGraphModel>
  </diagram>
</mxfile>
